<svg xmlns="http://www.w3.org/2000/svg" viewBox="0 0 283.62 283.62" role="img" aria-labelledby="twitterIcon"><title id="twitterIcon">Twitter</title><path d="M280.05,54.55a112.12,112.12,0,0,1-32.21,8.83,56.25,56.25,0,0,0,24.66-31A112.3,112.3,0,0,1,236.88,46,56.14,56.14,0,0,0,141.3,97.12,159.24,159.24,0,0,1,25.7,38.52,56.15,56.15,0,0,0,43.05,113.4a55.86,55.86,0,0,1-25.41-7c0,.23,0,.47,0,.71a56.12,56.12,0,0,0,45,55,56.23,56.23,0,0,1-25.33,1,56.15,56.15,0,0,0,52.4,39A112.54,112.54,0,0,1,20,226a114.17,114.17,0,0,1-13.38-.78,158.76,158.76,0,0,0,86,25.2c103.17,0,159.58-85.47,159.58-159.59q0-3.65-.16-7.26A114,114,0,0,0,280.05,54.55Z"/></svg>